<svg xmlns="http://www.w3.org/2000/svg" version="1.1" xmlns:xlink="http://www.w3.org/1999/xlink" xmlns:svgjs="http://svgjs.dev/svgjs" width="1500" height="1500" viewBox="0 0 1500 1500"><rect width="1500" height="1500" fill="#ffffff"></rect><g transform="matrix(0.6666666666666666,0,0,0.6666666666666666,249.39393939393943,645.6934011519736)"><svg viewBox="0 0 396 83" data-background-color="#ffffff" preserveAspectRatio="xMidYMid meet" height="314" width="1500" xmlns="http://www.w3.org/2000/svg" xmlns:xlink="http://www.w3.org/1999/xlink"><g id="tight-bounds" transform="matrix(1,0,0,1,0.2400000000000091,-0.14276574337802117)"><svg viewBox="0 0 395.52 83.28527511898668" height="83.28527511898668" width="395.52"><g><svg viewBox="0 0 545.6797211797459 114.9046463018484" height="83.28527511898668" width="395.52"><g transform="matrix(1,0,0,1,150.1597211797459,20.11786848600962)"><svg viewBox="0 0 395.52 74.66890932982916" height="74.66890932982916" width="395.52"><g id="textblocktransform"><svg viewBox="0 0 395.52 74.66890932982916" height="74.66890932982916" width="395.52" id="textblock"><g><svg viewBox="0 0 395.52 74.66890932982916" height="74.66890932982916" width="395.52"><g transform="matrix(1,0,0,1,0,0)"><svg width="395.52" viewBox="4.93 -41.6 222.93 42.09" height="74.66890932982916" data-palette-color="#000000"><path d="M4.93-29.13L4.93-32.93 25.02-32.93 25.02-29.13 17.31-29.13 17.31-3.81 25.02-3.81 25.02 0 4.93 0 4.93-3.81 12.65-3.81 12.65-29.13 4.93-29.13ZM15.36-35.28L12.33-35.28 12.33-35.77 17.87-41.6 22.68-41.6 22.68-40.89 15.36-35.28ZM38.74-22.95L34.64-22.95 34.64-26.42 38.79-26.42 40.21-33.3 43.14-33.3 43.14-26.42 53.68-26.42 53.68-22.95 43.14-22.95 43.14-7.03Q43.14-5.1 44.17-4.17 45.21-3.25 47.58-3.25L47.58-3.25Q50.85-3.25 54.83-4.08L54.83-4.08 54.83-0.73Q50.71 0.39 46.65 0.39L46.65 0.39Q42.7 0.39 40.72-1.28 38.74-2.95 38.74-6.57L38.74-6.57 38.74-22.95ZM86.88-2.71L86.88-2.71Q87.52-2.71 88.33-2.88L88.33-2.88 88.33-0.15Q86.66 0.24 84.93 0.24L84.93 0.24Q82.49 0.24 81.38-1.04 80.27-2.32 80.12-5.05L80.12-5.05 79.98-5.05Q78.39-2.1 76.23-0.81 74.07 0.49 70.89 0.49L70.89 0.49Q67.04 0.49 65.08-1.61 63.13-3.71 63.13-7.37L63.13-7.37Q63.13-15.89 74.21-16.02L74.21-16.02 79.98-16.11 79.98-17.55Q79.98-20.75 78.68-22.16 77.39-23.56 74.56-23.56L74.56-23.56Q71.67-23.56 70.41-22.53 69.14-21.51 68.89-19.36L68.89-19.36 64.3-19.78Q65.42-26.9 74.63-26.9L74.63-26.9Q79.51-26.9 81.97-24.62 84.42-22.34 84.42-18.02L84.42-18.02 84.42-6.64Q84.42-4.69 84.93-3.7 85.44-2.71 86.88-2.71ZM72.02-2.86L72.02-2.86Q74.36-2.86 76.17-3.98 77.97-5.1 78.97-6.98 79.98-8.86 79.98-10.86L79.98-10.86 79.98-13.04 75.34-12.94Q72.46-12.89 70.94-12.3 69.43-11.72 68.59-10.51 67.74-9.3 67.74-7.3L67.74-7.3Q67.74-5.3 68.83-4.08 69.92-2.86 72.02-2.86ZM107.98-36.23L107.98-3.47 117.25-3.47 117.25 0 93.28 0 93.28-3.47 103.58-3.47 103.58-32.76 96.53-32.76 96.53-36.23 107.98-36.23ZM146.79-13.23L146.79-13.23Q146.79-6.57 143.73-3.04 140.66 0.49 134.88 0.49L134.88 0.49Q129.21 0.49 126.2-3.08 123.18-6.64 123.18-13.23L123.18-13.23Q123.18-20.04 126.27-23.47 129.36-26.9 135.02-26.9L135.02-26.9Q140.98-26.9 143.89-23.51 146.79-20.12 146.79-13.23ZM142.18-13.23L142.18-13.23Q142.18-18.48 140.51-21.07 138.83-23.66 135.1-23.66L135.1-23.66Q131.31-23.66 129.56-21.02 127.8-18.38 127.8-13.23L127.8-13.23Q127.8-8.11 129.56-5.43 131.31-2.76 134.83-2.76L134.83-2.76Q138.71-2.76 140.44-5.37 142.18-7.98 142.18-13.23ZM187.68-16.63L187.68-16.63Q187.68-9.96 189.77-6.63 191.86-3.3 196.15-3.3L196.15-3.3Q198.62-3.3 200.62-4.97 202.62-6.64 204.01-10.18L204.01-10.18 207.9-8.59Q204.26 0.49 196.1 0.49L196.1 0.49Q189.68 0.49 186.23-3.93 182.77-8.35 182.77-16.63L182.77-16.63Q182.77-33.45 195.86-33.45L195.86-33.45Q204.14-33.45 207.24-25.27L207.24-25.27 203.13-23.68Q202.23-26.44 200.31-28.04 198.4-29.64 195.88-29.64L195.88-29.64Q191.71-29.64 189.69-26.49 187.68-23.34 187.68-16.63ZM227.86 0L222.13 0 222.13-7.3 227.86-7.3 227.86 0Z" opacity="1" transform="matrix(1,0,0,1,0,0)" fill="#000000" class="wordmark-text-0" data-fill-palette-color="primary" id="text-0"></path></svg></g></svg></g></svg></g></svg></g><g><svg viewBox="0 0 114.9046463018484 114.9046463018484" height="114.9046463018484" width="114.9046463018484"><g><svg></svg></g><g id="icon-0"><svg viewBox="0 0 114.9046463018484 114.9046463018484" height="114.9046463018484" width="114.9046463018484"><g><path d="M0 57.452c0-31.73 25.722-57.452 57.452-57.452 31.73 0 57.452 25.722 57.453 57.452 0 31.73-25.722 57.452-57.453 57.453-31.73 0-57.452-25.722-57.452-57.453zM57.452 108.171c28.011 0 50.719-22.707 50.719-50.719 0-28.011-22.707-50.719-50.719-50.718-28.011 0-50.719 22.707-50.718 50.718 0 28.011 22.707 50.719 50.718 50.719z" data-fill-palette-color="tertiary" fill="#261f20" stroke="transparent"></path></g><g transform="matrix(1,0,0,1,39.90388786071604,27.206124283004513)"><svg viewBox="0 0 35.09687058041632 60.492397735839376" height="60.492397735839376" width="35.09687058041632"><g><svg xmlns="http://www.w3.org/2000/svg" xmlns:xlink="http://www.w3.org/1999/xlink" version="1.1" x="0" y="0" viewBox="21.679106830508616 1 56.85827385947762 98" enable-background="new 0 0 100 100" xml:space="preserve" height="60.492397735839376" width="35.09687058041632" class="icon-dxe-0" data-fill-palette-color="accent" id="dxe-0"><g fill="#261f20" data-fill-palette-color="accent"><path fill-rule="evenodd" clip-rule="evenodd" d="M30.545 28.822C29.38 36.039 30.875 43.672 37.045 47.863 30.758 19.81 45.756 8.664 59.646 1 43.466 24.046 76.542 24.644 78.423 51.13 80.028 73.71 64.507 91.317 46.639 99 46.845 76.175 24.089 73.067 21.801 54.397 20.905 47.094 25.062 33.766 30.545 28.822" fill="#261f20" data-fill-palette-color="accent"></path></g></svg></g></svg></g></svg></g></svg></g></svg></g><defs></defs></svg><rect width="395.52" height="83.28527511898668" fill="none" stroke="none" visibility="hidden"></rect></g></svg></g></svg>